<svg version="1.1" xmlns="http://www.w3.org/2000/svg">  
  <defs>  
		<g id="user">
			<path fill="#aaa" 
				style="fill: var(--user-fill)" 
				d="M18 22.082v-1.649c2.203-1.241 4-4.337 4-7.432 0-4.971 0-9-6-9s-6 4.029-6 9c0 3.096 1.797 6.191 4 7.432v1.649c-6.784 0.555-12 3.888-12 7.918h28c0-4.030-5.216-7.364-12-7.918z"/>
		</g>  
		<g id="lock">
			<path fill="#aaa" 
				style="fill: var(--lock-fill)" d="M18.5 14h-0.5v-6c0-3.308-2.692-6-6-6h-4c-3.308 0-6 2.692-6 6v6h-0.5c-0.825 0-1.5 0.675-1.5 1.5v15c0 0.825 0.675 1.5 1.5 1.5h17c0.825 0 1.5-0.675 1.5-1.5v-15c0-0.825-0.675-1.5-1.5-1.5zM6 8c0-1.103 0.897-2 2-2h4c1.103 0 2 0.897 2 2v6h-8v-6z"/>
		</g>  
		<g id="bin">
			<path 
				fill="#aaa" 
				style="fill: var(--bin-fill)" 
				d="M4 10v20c0 1.1 0.9 2 2 2h18c1.1 0 2-0.9 2-2v-20h-22zM10 28h-2v-14h2v14zM14 28h-2v-14h2v14zM18 28h-2v-14h2v14zM22 28h-2v-14h2v14z"/>
			<path 
				fill="#faa"
				style="fill: var(--bin-fill)" 
				d="M26.5 4h-6.5v-2.5c0-0.825-0.675-1.5-1.5-1.5h-7c-0.825 0-1.5 0.675-1.5 1.5v2.5h-6.5c-0.825 0-1.5 0.675-1.5 1.5v2.5h26v-2.5c0-0.825-0.675-1.5-1.5-1.5zM18 4h-6v-1.975h6v1.975z"></path>
		</g>  
		<g id="envelop">
			<path fill="#aaa" 
				style="fill: var(--envelop-fill)" 
				d="M29 4h-26c-1.65 0-3 1.35-3 3v20c0 1.65 1.35 3 3 3h26c1.65 0 3-1.35 3-3v-20c0-1.65-1.35-3-3-3zM12.461 17.199l-8.461 6.59v-15.676l8.461 9.086zM5.512 8h20.976l-10.488 7.875-10.488-7.875zM12.79 17.553l3.21 3.447 3.21-3.447 6.58 8.447h-19.579l6.58-8.447zM19.539 17.199l8.461-9.086v15.676l-8.461-6.59z"/>
		</g>  
		<g id="edit">
			<path 
				fill="#aaa"
				 style="fill: var(--edit-fill)"
				d="M12 20l4-2 14-14-2-2-14 14-2 4zM9.041 27.097c-0.989-2.085-2.052-3.149-4.137-4.137l3.097-8.525 4-2.435 12-12h-6l-12 12-6 20 20-6 12-12v-6l-12 12-2.435 4z"/>
		</g>  
		<g id="desc">
			<path 
				fill="#aaa" 
				style="fill: var(--desc-fill)" 
				d="M27 0h-24c-1.65 0-3 1.35-3 3v26c0 1.65 1.35 3 3 3h24c1.65 0 3-1.35 3-3v-26c0-1.65-1.35-3-3-3zM26 28h-22v-24h22v24zM8 14h14v2h-14zM8 18h14v2h-14zM8 22h14v2h-14zM8 10h14v2h-14z"/>
		</g>  
		<g id="check">
			<path 
				style="fill: var(--check-fill)"
				d="M27 4l-15 15-7-7-5 5 12 12 20-20z" />
		</g>  
		<g id="cross">
			<path 
				fill="#aaa"
				style="fill: var(--cross-fill)"
				d="M31.708 25.708c-0-0-0-0-0-0l-9.708-9.708 9.708-9.708c0-0 0-0 0-0 0.105-0.105 0.18-0.227 0.229-0.357 0.133-0.356 0.057-0.771-0.229-1.057l-4.586-4.586c-0.286-0.286-0.702-0.361-1.057-0.229-0.13 0.048-0.252 0.124-0.357 0.228 0 0-0 0-0 0l-9.708 9.708-9.708-9.708c-0-0-0-0-0-0-0.105-0.104-0.227-0.18-0.357-0.228-0.356-0.133-0.771-0.057-1.057 0.229l-4.586 4.586c-0.286 0.286-0.361 0.702-0.229 1.057 0.049 0.13 0.124 0.252 0.229 0.357 0 0 0 0 0 0l9.708 9.708-9.708 9.708c-0 0-0 0-0 0-0.104 0.105-0.18 0.227-0.229 0.357-0.133 0.355-0.057 0.771 0.229 1.057l4.586 4.586c0.286 0.286 0.702 0.361 1.057 0.229 0.13-0.049 0.252-0.124 0.357-0.229 0-0 0-0 0-0l9.708-9.708 9.708 9.708c0 0 0 0 0 0 0.105 0.105 0.227 0.18 0.357 0.229 0.356 0.133 0.771 0.057 1.057-0.229l4.586-4.586c0.286-0.286 0.362-0.702 0.229-1.057-0.049-0.13-0.124-0.252-0.229-0.357z"/>
		</g>



		<g id="rain">
			<path fill="none" d="M24,6c-0.375,0-0.733,0.062-1.104,0.111C21.508,3.646,18.928,2,16.001,2c-2.987,0-5.565,1.666-6.94,4.101
				C8.708,6.054,8.355,6,8.001,6c-4.41,0-8,3.589-8,8.001s3.59,8,8,8H24c4.414,0,8-3.588,8-8S28.414,6,24,6z M24,18.001H8.001
				c-2.207,0-4-1.795-4-4c0-2.193,1.94-3.886,4.004-3.945c0.009,0.943,0.172,1.869,0.5,2.744l3.746-1.402
				c-0.168-0.444-0.25-0.915-0.25-1.396c0-2.205,1.793-4.001,4-4.001c1.293,0,2.466,0.642,3.199,1.64
				c-1.928,1.461-3.199,3.756-3.199,6.361h4c0-2.205,1.796-4,3.999-4c2.211,0,4,1.795,4,4S26.211,18.001,24,18.001z M3.281,29.439
				c-0.75,0.75-1.969,0.75-2.719,0s-0.75-1.969,0-2.719s5.438-2.72,5.438-2.72S4.031,28.689,3.281,29.439z M11.286,29.439
				c-0.75,0.75-1.965,0.75-2.719,0c-0.751-0.75-0.751-1.969,0-2.719c0.754-0.75,5.438-2.72,5.438-2.72S12.04,28.689,11.286,29.439z
				M19.281,29.439c-0.75,0.75-1.969,0.75-2.719,0s-0.75-1.969,0-2.719S22,24.001,22,24.001S20.031,28.689,19.281,29.439z"/>
		</g>  
		<g id="cloud">
			<path fill="none" d="M24,6c-0.375,0-0.733,0.062-1.104,0.111C21.508,3.646,18.928,2,16.001,2c-2.987,0-5.565,1.666-6.94,4.101
				C8.708,6.054,8.355,6,8.001,6c-4.41,0-8,3.589-8,8.001s3.59,8,8,8H24c4.414,0,8-3.588,8-8S28.414,6,24,6z M24,18.001H8.001
				c-2.207,0-4-1.795-4-4c0-2.193,1.94-3.886,4.004-3.945c0.009,0.943,0.172,1.869,0.5,2.744l3.746-1.402
				c-0.168-0.444-0.25-0.915-0.25-1.396c0-2.205,1.793-4.001,4-4.001c1.293,0,2.466,0.642,3.199,1.64
				c-1.928,1.461-3.199,3.756-3.199,6.361h4c0-2.205,1.796-4,3.999-4c2.211,0,4,1.795,4,4S26.211,18.001,24,18.001z"/>
		</g>  
		<g id="sun">
			<path fill="none" d="M16.001,12c2.203,0,4,1.795,4,4s-1.797,4-4,4s-4-1.795-4-4S13.798,12,16.001,12 M16.001,8c-4.418,0-8,3.582-8,8
				s3.582,8,8,8S24,20.418,24,16S20.419,8,16.001,8L16.001,8z M14,2c0,1.104,0.896,2,2,2s2-0.896,2-2s-0.896-2-2-2S14,0.896,14,2z
				M4,6c0,1.104,0.896,2,2,2s2-0.896,2-2S7.104,4,6,4S4,4.896,4,6z M2,14c1.105,0,2,0.895,2,2c0,1.107-0.895,2-2,2s-2-0.893-2-2
				C0,14.895,0.895,14,2,14z M4,26c0,1.104,0.896,2,2,2s2-0.896,2-2s-0.896-2-2-2S4,24.896,4,26z M14,30c0-1.109,0.895-2,2-2
				c1.108,0,2,0.891,2,2c0,1.102-0.892,2-2,2C14.895,32,14,31.102,14,30z M24,26c0,1.104,0.896,2,2,2s2-0.896,2-2s-0.896-2-2-2
				S24,24.896,24,26z M30,18c-1.104,0-2-0.896-2-2c0-1.107,0.896-2,2-2s2,0.893,2,2C32,17.104,31.104,18,30,18z M24,6
				c0,1.104,0.896,2,2,2s2-0.896,2-2s-0.896-2-2-2S24,4.896,24,6z"/>
		</g>  
  </defs>
</svg>